<svg xmlns="http://www.w3.org/2000/svg" width="64" height="64" viewBox="0 0 64 64">
  <g fill="#09f"><path
    d="M25.135 47.953l-.074-4.578c-3.65 3.519-6.4 5.482-10.64 5.482-5.86 0-12.189-4.028-12.189-12.016V15.635H5.99v20.538c0 6.457 4.713 9.59 9.186 9.59 3.563 0 5.701-1.595 9.628-5.66V15.635h3.755v32.321h-3.424zM61.768 31.858c0 10.41-4.359 16.938-12.981 16.938-3.239 0-5.796-.86-10.435-5.198V63.34h-3.758V15.635h3.424l.075 4.355c2.982-4.025 6.925-5.148 10.134-5.148 8.676 0 13.541 6.747 13.541 17.016zm-23.416-8.117l-.027 16.17c4.65 4.996 6.714 5.85 9.74 5.85 7.003 0 9.945-5.297 9.945-13.92 0-8.252-3.576-13.97-10.62-13.97-2.932.004-6.37 1.083-9.038 5.87z"/></g>
</svg>